<svg width="537" height="421" viewBox="0 0 537 421" fill="none" xmlns="http://www.w3.org/2000/svg">
<path d="M216.831 193.01H4.20261C3.1587 193.008 2.1579 192.487 1.41974 191.561C0.681583 190.635 0.266344 189.379 0.265137 188.069V121.883C0.266344 120.573 0.681583 119.318 1.41974 118.391C2.1579 117.465 3.1587 116.944 4.20261 116.942H216.831C217.875 116.944 218.876 117.465 219.614 118.391C220.352 119.318 220.767 120.573 220.768 121.883V188.07C220.767 189.379 220.352 190.635 219.614 191.561C218.875 192.487 217.875 193.008 216.831 193.01V193.01ZM4.20261 118.919C3.57618 118.919 2.97559 119.232 2.53264 119.788C2.08969 120.344 1.84059 121.097 1.83998 121.883V188.07C1.84059 188.856 2.08969 189.609 2.53264 190.165C2.97559 190.721 3.57618 191.034 4.20261 191.034H216.831C217.457 191.034 218.058 190.721 218.501 190.165C218.944 189.609 219.193 188.856 219.194 188.07V121.883C219.193 121.097 218.944 120.344 218.501 119.788C218.058 119.232 217.457 118.919 216.831 118.919H4.20261Z" fill="#E6E6E6"/>
<path d="M24.1096 141.153C23.1652 141.168 22.2647 141.537 21.6024 142.182C20.94 142.827 20.5688 143.695 20.5688 144.599C20.5688 145.503 20.94 146.371 21.6024 147.016C22.2647 147.661 23.1652 148.03 24.1096 148.045H193.836C194.79 148.063 195.713 147.717 196.401 147.083C197.09 146.449 197.487 145.58 197.505 144.666C197.523 143.752 197.162 142.868 196.5 142.209C195.838 141.551 194.929 141.171 193.975 141.153L193.954 141.153C193.914 141.152 193.875 141.152 193.836 141.153H24.1096Z" fill="#E6E6E6"/>
<path d="M24.1096 161.831C23.1652 161.846 22.2647 162.216 21.6024 162.861C20.94 163.506 20.5688 164.374 20.5688 165.278C20.5688 166.182 20.94 167.05 21.6024 167.695C22.2647 168.339 23.1652 168.709 24.1096 168.724H193.836C194.789 168.737 195.708 168.387 196.393 167.752C197.077 167.116 197.47 166.247 197.486 165.334C197.501 164.422 197.138 163.54 196.476 162.884C195.814 162.227 194.907 161.849 193.954 161.831C193.914 161.831 193.875 161.831 193.836 161.831H24.1096Z" fill="#E6E6E6"/>
<path d="M204.99 169.088C226.932 169.088 244.72 152.06 244.72 131.055C244.72 110.049 226.932 93.0211 204.99 93.0211C183.047 93.0211 165.259 110.049 165.259 131.055C165.259 152.06 183.047 169.088 204.99 169.088Z" fill="white"/>
<path d="M191.191 148.166C191.123 148.166 191.055 148.166 190.986 148.164H169.631C166.921 148.123 164.337 147.064 162.436 145.216C160.534 143.367 159.468 140.877 159.467 138.283C159.466 135.689 160.53 133.198 162.43 131.348C164.33 129.498 166.913 128.437 169.623 128.394H190.996C191.101 128.392 191.215 128.392 191.328 128.394C194.054 128.43 196.654 129.496 198.562 131.36C200.47 133.224 201.531 135.735 201.513 138.345C201.495 140.955 200.399 143.452 198.466 145.291C196.532 147.131 193.917 148.165 191.191 148.166V148.166Z" fill="#FFAB73"/>
<path d="M537 418.685H215.152V420.816H537V418.685Z" fill="#3F3D56"/>
<path d="M234.982 238.394C234.729 238.018 234.519 237.616 234.356 237.197L229.228 224.05C228.631 222.514 228.694 220.815 229.405 219.324C230.115 217.833 231.414 216.673 233.017 216.098L347.482 175.182C349.087 174.61 350.862 174.671 352.419 175.351C353.977 176.031 355.189 177.275 355.789 178.809L360.917 191.957C361.214 192.717 361.351 193.526 361.321 194.337C361.291 195.148 361.095 195.946 360.743 196.684C360.391 197.423 359.89 198.087 359.27 198.641C358.65 199.194 357.922 199.625 357.127 199.909L242.663 240.825C241.285 241.317 239.773 241.344 238.376 240.902C236.979 240.46 235.782 239.576 234.982 238.394V238.394Z" fill="#FFAB73"/>
<path d="M347.118 171.784L300.571 189.553C299.104 189.975 297.864 190.922 297.107 192.197C296.35 193.471 296.134 194.976 296.506 196.399L301.907 217.103C302.121 217.921 302.521 218.684 303.079 219.336C303.637 219.988 304.339 220.514 305.134 220.875C305.93 221.236 306.799 221.425 307.68 221.426C308.561 221.427 309.431 221.242 310.227 220.883L356.903 199.851C358.382 199.32 359.58 198.25 360.236 196.874C360.892 195.499 360.952 193.931 360.404 192.514L354.793 175.136C354.238 173.718 353.119 172.569 351.68 171.941C350.241 171.312 348.6 171.256 347.118 171.784V171.784Z" fill="#2F2E41"/>
<path d="M432.302 300.777C430.841 300.937 429.366 300.616 428.121 299.866C426.877 299.115 425.936 297.981 425.456 296.65L385.613 186.078C385.336 185.31 385.22 184.499 385.272 183.688C385.323 182.878 385.54 182.086 385.911 181.356C386.283 180.626 386.8 179.974 387.435 179.436C388.07 178.898 388.809 178.484 389.61 178.22L403.469 173.643C405.088 173.11 406.862 173.213 408.401 173.931C409.94 174.648 411.118 175.921 411.677 177.47L451.522 288.043C452.078 289.593 451.969 291.291 451.22 292.764C450.47 294.237 449.141 295.365 447.523 295.901L433.665 300.477C433.223 300.624 432.766 300.724 432.302 300.777V300.777Z" fill="#FFAB73"/>
<path d="M414.647 175.578L429.939 221.261C430.532 222.613 430.558 224.132 430.013 225.502C429.467 226.872 428.391 227.988 427.008 228.619L406.885 237.801C406.09 238.164 405.221 238.354 404.34 238.356C403.46 238.359 402.589 238.175 401.792 237.817C400.994 237.46 400.29 236.937 399.728 236.288C399.167 235.638 398.763 234.878 398.546 234.061L385.802 186.207C385.289 184.777 385.389 183.211 386.08 181.851C386.771 180.492 387.997 179.45 389.489 178.953L407.063 172.042C408.559 171.55 410.197 171.645 411.619 172.308C413.041 172.971 414.13 174.147 414.647 175.578V175.578Z" fill="#2F2E41"/>
<path d="M368.346 419.312H353.687C351.975 419.31 350.334 418.659 349.124 417.5C347.913 416.341 347.232 414.77 347.23 413.132V296.165C347.232 294.526 347.913 292.955 349.124 291.797C350.334 290.638 351.975 289.986 353.687 289.984H368.346C370.058 289.986 371.699 290.638 372.909 291.797C374.12 292.955 374.801 294.526 374.803 296.165V413.132C374.801 414.77 374.12 416.341 372.909 417.5C371.699 418.659 370.058 419.31 368.346 419.312Z" fill="#2F2E41"/>
<path d="M397.342 419.312H382.682C380.97 419.31 379.329 418.659 378.119 417.5C376.908 416.341 376.228 414.77 376.226 413.132V296.165C376.228 294.526 376.908 292.955 378.119 291.797C379.329 290.638 380.97 289.986 382.682 289.984H397.342C399.054 289.986 400.695 290.638 401.905 291.797C403.115 292.955 403.796 294.526 403.798 296.165V413.132C403.796 414.77 403.115 416.341 401.905 417.5C400.695 418.659 399.054 419.31 397.342 419.312Z" fill="#2F2E41"/>
<path d="M409.424 309.916H342.813C340.97 309.914 339.203 309.212 337.899 307.964C336.596 306.716 335.862 305.025 335.86 303.26V199.671C335.86 189.45 340.102 179.648 347.652 172.42C355.201 165.193 365.441 161.133 376.118 161.133C386.795 161.133 397.035 165.193 404.585 172.42C412.135 179.648 416.376 189.45 416.376 199.671V303.26C416.374 305.025 415.641 306.716 414.338 307.964C413.034 309.212 411.267 309.914 409.424 309.916Z" fill="#CCCCCC"/>
<path d="M419.45 335.255H385.679V152.547L386.307 152.711C395.818 155.21 404.21 160.627 410.197 168.13C416.183 175.633 419.434 184.809 419.45 194.251V335.255Z" fill="#2F2E41"/>
<path d="M363.813 335.255H330.042V194.251C330.058 184.809 333.309 175.633 339.296 168.13C345.282 160.627 353.675 155.21 363.185 152.711L363.813 152.547V335.255Z" fill="#2F2E41"/>
<path d="M375.614 139.705C404.973 139.705 428.773 116.922 428.773 88.8173C428.773 60.7125 404.973 37.9291 375.614 37.9291C346.256 37.9291 322.456 60.7125 322.456 88.8173C322.456 116.922 346.256 139.705 375.614 139.705Z" fill="#FFAB73"/>
<path d="M435.714 77.1013C435.714 77.1013 438.694 -1.81831 399.957 23.8543C399.957 23.8543 377.608 -47.934 322.979 59.5108L307.087 74.7242C307.087 74.7242 378.602 65.2158 445.15 94.6919L435.714 77.1013Z" fill="#2F2E41"/>
<path d="M376.425 114.019C373.142 113.932 369.055 113.823 365.907 111.621C364.969 110.939 364.199 110.068 363.65 109.071C363.101 108.073 362.786 106.973 362.728 105.847C362.671 105.046 362.808 104.244 363.129 103.503C363.449 102.762 363.945 102.102 364.576 101.574C366.22 100.244 368.622 99.9324 371.209 100.66L368.528 81.9045L370.496 81.6463L373.648 103.696L372.005 102.974C370.099 102.138 367.484 101.712 365.858 103.027C365.459 103.371 365.148 103.798 364.95 104.275C364.751 104.753 364.67 105.268 364.713 105.78C364.761 106.618 364.998 107.436 365.406 108.179C365.814 108.922 366.384 109.572 367.078 110.085C369.529 111.798 372.786 112.019 376.48 112.118L376.425 114.019Z" fill="#2F2E41"/>
<path d="M358.795 83.522H348.096V85.4237H358.795V83.522Z" fill="#2F2E41"/>
<path d="M392.566 83.522H381.867V85.4237H392.566V83.522Z" fill="#2F2E41"/>
<path d="M257.093 243.245C255.659 243.882 254.02 243.947 252.536 243.427C251.051 242.907 249.844 241.844 249.179 240.471L214.9 169.744C214.235 168.371 214.167 166.802 214.711 165.382C215.254 163.961 216.365 162.805 217.799 162.168C219.232 161.532 220.871 161.466 222.355 161.986C223.84 162.506 225.047 163.569 225.712 164.942L259.991 235.669C260.656 237.042 260.724 238.611 260.181 240.032C259.637 241.453 258.527 242.608 257.093 243.245Z" fill="#3F3D56"/>
<path d="M221.875 167.141C220.821 167.141 219.811 166.741 219.066 166.028C218.321 165.314 217.902 164.347 217.902 163.338V114.89H168.239C167.185 114.89 166.175 114.49 165.43 113.776C164.685 113.063 164.266 112.096 164.266 111.087C164.266 110.078 164.685 109.111 165.43 108.398C166.175 107.684 167.185 107.284 168.239 107.284H221.875C222.929 107.284 223.939 107.684 224.684 108.398C225.43 109.111 225.848 110.078 225.848 111.087V163.338C225.848 164.347 225.43 165.314 224.684 166.028C223.939 166.741 222.929 167.141 221.875 167.141V167.141Z" fill="#FFAB73"/>
<path d="M222.814 172.518C214.261 176.317 204.722 177.603 195.405 176.212C186.088 174.822 177.411 170.818 170.472 164.707C163.532 158.595 158.641 150.651 156.417 141.879C154.194 133.107 154.737 123.9 157.98 115.424C161.222 106.947 167.017 99.5817 174.632 94.2582C182.247 88.9346 191.34 85.8923 200.762 85.516C210.183 85.1397 219.509 87.4462 227.561 92.144C235.613 96.8418 242.029 103.72 245.997 111.908C251.304 122.89 251.844 135.439 247.498 146.802C243.152 158.165 234.275 167.413 222.814 172.518V172.518ZM187.7 100.066C181.285 102.915 175.896 107.521 172.216 113.302C168.535 119.083 166.728 125.779 167.023 132.544C167.318 139.308 169.701 145.837 173.872 151.304C178.043 156.771 183.814 160.932 190.455 163.26C197.095 165.588 204.308 165.978 211.181 164.382C218.054 162.785 224.278 159.274 229.065 154.291C233.853 149.308 236.99 143.079 238.08 136.389C239.169 129.7 238.162 122.852 235.185 116.71C231.186 108.482 223.94 102.109 215.038 98.9885C206.136 95.8681 196.304 96.2554 187.7 100.066V100.066Z" fill="#3F3D56"/>
</svg>
