<svg width="728" height="755" viewBox="0 0 728 755" fill="none" xmlns="http://www.w3.org/2000/svg">
<g id="saif_logo" clip-path="url(#clip0)">
<g id="chef">
<g id="fork">
<path id="Vector" d="M165.594 265L138 283.098L425.38 721.263L452.975 703.165L165.594 265Z" fill="#E6E6E6"/>
<path id="Vector_2" d="M103.992 99.4514L167.837 196.794C169.073 198.679 169.51 200.978 169.051 203.185C168.593 205.393 167.276 207.327 165.391 208.563C163.506 209.8 161.207 210.237 159 209.778C156.792 209.319 154.858 208.003 153.622 206.118L80.2248 94.2103C70.2622 93.3783 60.2485 95.0229 51.0754 98.9976L131.044 220.925C132.28 222.81 132.716 225.109 132.257 227.316C131.798 229.522 130.482 231.456 128.597 232.692C126.712 233.929 124.414 234.365 122.207 233.907C120 233.449 118.066 232.133 116.829 230.249L36.8601 108.321C29.5596 115.151 24.0614 123.68 20.8551 133.149L94.2519 245.056C95.4874 246.942 95.9237 249.24 95.4647 251.447C95.0058 253.653 93.6892 255.587 91.8045 256.824C89.9198 258.06 87.6214 258.497 85.4146 258.038C83.2078 257.58 81.2733 256.264 80.0366 254.38L16.1922 157.037C14.5524 184.179 23.4017 216.349 42.7955 245.918C78.8397 300.874 137.635 326.027 174.119 302.099C210.602 278.17 210.958 214.221 174.914 159.265C155.52 129.696 129.54 108.762 103.992 99.4514Z" fill="#E6E6E6"/>
</g>
<g id="spoon">
<path id="Vector_3" d="M288 203H255V727H288V203Z" fill="#E6E6E6"/>
<path id="Vector_4" d="M272 238C315.63 238 351 184.722 351 119C351 53.2781 315.63 0 272 0C228.37 0 193 53.2781 193 119C193 184.722 228.37 238 272 238Z" fill="#E6E6E6"/>
</g>
<path id="Vector_5" d="M364 754.885C565.032 754.885 728 745.535 728 734C728 722.465 565.032 713.115 364 713.115C162.968 713.115 0 722.465 0 734C0 745.535 162.968 754.885 364 754.885Z" fill="#E6E6E6"/>
<path id="Vector_6" d="M185 474H183C182.932 447.373 188.825 421.068 200.247 397.015L202.055 397.871C190.759 421.657 184.932 447.669 185 474Z" fill="#3F3D56"/>
<path id="Vector_7" d="M543 474H541C541.062 448.276 535.501 422.849 524.706 399.499L526.522 398.661C537.439 422.274 543.063 447.986 543 474Z" fill="#3F3D56"/>
<g id="Hat">
<path id="Vector_8" d="M579.268 733.693C442.855 709.105 303.145 709.105 166.732 733.693C164.565 734.086 162.339 733.998 160.209 733.436C158.08 732.874 156.1 731.852 154.409 730.441C152.718 729.031 151.357 727.266 150.422 725.272C149.488 723.278 149.002 721.103 149 718.901V532H597V718.901C596.998 721.103 596.512 723.278 595.578 725.272C594.643 727.266 593.282 729.031 591.591 730.441C589.9 731.852 587.92 732.874 585.791 733.436C583.661 733.998 581.435 734.086 579.268 733.693V733.693Z" fill="#E65718"/>
<path id="Vector_9" d="M555.994 390.682C545.649 390.672 535.375 392.334 525.597 395.597C511.335 365.702 488.545 340.357 459.901 322.539C431.258 304.721 397.95 295.169 363.887 295.002C329.823 294.836 296.417 304.063 267.589 321.6C238.761 339.138 215.707 364.258 201.133 394.013C186.782 390.122 171.673 389.622 157.08 392.554C142.487 395.485 128.837 401.763 117.28 410.859C105.722 419.955 96.5954 431.601 90.6689 444.818C84.7423 458.035 82.1893 472.435 83.2247 486.804C84.2602 501.174 88.854 515.093 96.619 527.388C104.384 539.683 115.093 549.995 127.843 557.455C140.594 564.914 155.013 569.303 169.886 570.252C184.758 571.2 199.649 568.681 213.303 562.905C229.715 587.074 252.131 606.883 278.503 620.524C304.876 634.166 334.364 641.203 364.276 640.996C394.187 640.788 423.568 633.34 449.735 619.334C475.902 605.327 498.02 585.208 514.07 560.814C526.609 566.932 540.419 570.225 554.464 570.448C568.509 570.67 582.423 567.815 595.163 562.098C607.903 556.38 619.137 547.949 628.023 537.435C636.909 526.922 643.216 514.6 646.47 501.395C649.724 488.189 649.841 474.443 646.812 461.188C643.783 447.932 637.687 435.512 628.981 424.859C620.275 414.206 609.186 405.596 596.545 399.677C583.904 393.758 570.041 390.682 555.994 390.682V390.682Z" fill="#E65718"/>
</g>
<path id="Vector_10" d="M73.614 617.028C74.7206 617.028 75.6177 616.579 75.6177 616.026C75.6177 615.473 74.7206 615.024 73.614 615.024C72.5074 615.024 71.6104 615.473 71.6104 616.026C71.6104 616.579 72.5074 617.028 73.614 617.028Z" fill="#E6E6E6"/>
<path id="Vector_11" d="M68.8834 619.393C69.99 619.393 70.8871 618.945 70.8871 618.391C70.8871 617.838 69.99 617.389 68.8834 617.389C67.7768 617.389 66.8798 617.838 66.8798 618.391C66.8798 618.945 67.7768 619.393 68.8834 619.393Z" fill="#E6E6E6"/>
<g id="salt_left">
<path id="Vector_12" d="M95.886 728.112C74.0536 741.767 52.2213 741.761 30.3888 728.095C29.6977 727.669 29.1364 727.062 28.7659 726.34C28.3954 725.618 28.23 724.808 28.2875 723.998L35.0999 635.437H90.2004L97.9833 723.967C98.0505 724.784 97.8901 725.604 97.5199 726.336C97.1497 727.067 96.5842 727.682 95.886 728.112Z" fill="#3F3D56"/>
<path id="Vector_13" d="M62.3959 646.457C77.7519 646.457 90.2003 641.972 90.2003 636.439C90.2003 630.906 77.7519 626.421 62.3959 626.421C47.04 626.421 34.5916 630.906 34.5916 636.439C34.5916 641.972 47.04 646.457 62.3959 646.457Z" fill="#3F3D56"/>
<path id="Vector_14" d="M84.1894 633.057C69.7011 643.249 55.6755 643.249 42.1127 633.057V617.028H84.1894V633.057Z" fill="#E65718"/>
<path id="Vector_15" d="M63.151 625.042C74.7702 625.042 84.1894 621.454 84.1894 617.028C84.1894 612.601 74.7702 609.013 63.151 609.013C51.5319 609.013 42.1127 612.601 42.1127 617.028C42.1127 621.454 51.5319 625.042 63.151 625.042Z" fill="#E65718"/>
<path id="Vector_16" d="M64.1528 617.028C65.2594 617.028 66.1565 616.579 66.1565 616.026C66.1565 615.473 65.2594 615.024 64.1528 615.024C63.0462 615.024 62.1492 615.473 62.1492 616.026C62.1492 616.579 63.0462 617.028 64.1528 617.028Z" fill="#E6E6E6"/>
<path id="Vector_17" d="M49.9612 619.393C51.0678 619.393 51.9648 618.945 51.9648 618.391C51.9648 617.838 51.0678 617.389 49.9612 617.389C48.8546 617.389 47.9575 617.838 47.9575 618.391C47.9575 618.945 48.8546 619.393 49.9612 619.393Z" fill="#E6E6E6"/>
<path id="Vector_18" d="M54.6918 617.028C55.7983 617.028 56.6954 616.579 56.6954 616.026C56.6954 615.473 55.7983 615.024 54.6918 615.024C53.5852 615.024 52.6881 615.473 52.6881 616.026C52.6881 616.579 53.5852 617.028 54.6918 617.028Z" fill="#E6E6E6"/>
<path id="Vector_19" d="M59.4224 620.576C60.5289 620.576 61.426 620.127 61.426 619.574C61.426 619.021 60.5289 618.572 59.4224 618.572C58.3158 618.572 57.4187 619.021 57.4187 619.574C57.4187 620.127 58.3158 620.576 59.4224 620.576Z" fill="#E6E6E6"/>
</g>
<path id="Vector_20" d="M669.153 617.028C670.259 617.028 671.156 616.579 671.156 616.026C671.156 615.473 670.259 615.024 669.153 615.024C668.046 615.024 667.149 615.473 667.149 616.026C667.149 616.579 668.046 617.028 669.153 617.028Z" fill="#E6E6E6"/>
<g id="salt_right">
<path id="Vector_21" d="M700.886 728.112C679.054 741.767 657.221 741.761 635.389 728.095C634.698 727.669 634.136 727.062 633.766 726.34C633.395 725.618 633.23 724.808 633.288 723.998L640.1 635.437H695.2L702.983 723.967C703.051 724.784 702.89 725.604 702.52 726.336C702.15 727.067 701.584 727.682 700.886 728.112Z" fill="#3F3D56"/>
<path id="Vector_22" d="M667.396 646.457C682.752 646.457 695.2 641.972 695.2 636.439C695.2 630.906 682.752 626.421 667.396 626.421C652.04 626.421 639.592 630.906 639.592 636.439C639.592 641.972 652.04 646.457 667.396 646.457Z" fill="#3F3D56"/>
<path id="Vector_23" d="M689.189 633.057C674.701 643.249 660.675 643.249 647.113 633.057V617.028H689.189V633.057Z" fill="#E65718"/>
<path id="Vector_24" d="M668.151 625.042C679.77 625.042 689.189 621.454 689.189 617.028C689.189 612.601 679.77 609.013 668.151 609.013C656.532 609.013 647.113 612.601 647.113 617.028C647.113 621.454 656.532 625.042 668.151 625.042Z" fill="#E65718"/>
<path id="Vector_25" d="M678.614 617.028C679.721 617.028 680.618 616.579 680.618 616.026C680.618 615.473 679.721 615.024 678.614 615.024C677.507 615.024 676.61 615.473 676.61 616.026C676.61 616.579 677.507 617.028 678.614 617.028Z" fill="#E6E6E6"/>
<path id="Vector_26" d="M673.883 619.393C674.99 619.393 675.887 618.945 675.887 618.391C675.887 617.838 674.99 617.389 673.883 617.389C672.777 617.389 671.88 617.838 671.88 618.391C671.88 618.945 672.777 619.393 673.883 619.393Z" fill="#E6E6E6"/>
</g>
<path id="Vector_27" d="M654.961 619.393C656.068 619.393 656.965 618.945 656.965 618.391C656.965 617.838 656.068 617.389 654.961 617.389C653.855 617.389 652.958 617.838 652.958 618.391C652.958 618.945 653.855 619.393 654.961 619.393Z" fill="#E6E6E6"/>
<path id="Vector_28" d="M659.692 617.028C660.798 617.028 661.695 616.579 661.695 616.026C661.695 615.473 660.798 615.024 659.692 615.024C658.585 615.024 657.688 615.473 657.688 616.026C657.688 616.579 658.585 617.028 659.692 617.028Z" fill="#E6E6E6"/>
<path id="Vector_29" d="M664.422 620.576C665.529 620.576 666.426 620.127 666.426 619.574C666.426 619.021 665.529 618.572 664.422 618.572C663.316 618.572 662.419 619.021 662.419 619.574C662.419 620.127 663.316 620.576 664.422 620.576Z" fill="#E6E6E6"/>
<g id="undraw_time_management_30iu 1">
<path id="Vector_30" d="M370.557 240.208C370.979 237.728 367.677 229.784 367.677 229.784C367.677 229.784 361.94 236.219 361.523 238.699C361.382 239.862 361.697 241.035 362.403 241.973C363.109 242.911 364.151 243.544 365.314 243.738C366.476 243.933 367.669 243.675 368.646 243.019C369.622 242.362 370.307 241.357 370.557 240.212V240.208Z" fill="#E65718"/>
<path id="Vector_31" d="M526.362 431.47C616.529 431.47 689.624 358.823 689.624 269.209C689.624 179.595 616.529 106.949 526.362 106.949C436.195 106.949 363.1 179.595 363.1 269.209C363.1 358.823 436.195 431.47 526.362 431.47Z" fill="#E65718"/>
<path id="Vector_32" d="M526.362 398.197C598.04 398.197 656.146 340.447 656.146 269.209C656.146 197.971 598.04 140.221 526.362 140.221C454.684 140.221 396.578 197.971 396.578 269.209C396.578 340.447 454.684 398.197 526.362 398.197Z" fill="#DDE1EC"/>
<g id="Group" opacity="0.1">
<path id="Vector_33" opacity="0.1" d="M526.362 284.706C533.96 284.706 540.12 278.584 540.12 271.032C540.12 263.481 533.96 257.359 526.362 257.359C518.764 257.359 512.604 263.481 512.604 271.032C512.604 278.584 518.764 284.706 526.362 284.706Z" fill="black"/>
</g>
<g id="watch_tick">
<path id="Vector_34" opacity="0.3" d="M530.031 163.011H522.693V276.958H530.031V163.011Z" fill="black"/>
<path id="Vector_35" d="M526.362 282.883C533.96 282.883 540.12 276.761 540.12 269.209C540.12 261.658 533.96 255.536 526.362 255.536C518.764 255.536 512.604 261.658 512.604 269.209C512.604 276.761 518.764 282.883 526.362 282.883Z" fill="#535461"/>
</g>
<g id="Group_2" opacity="0.1">
<path id="Vector_36" opacity="0.1" d="M406.658 284.706C406.658 213.466 464.763 155.718 536.442 155.718C556.561 155.701 576.407 160.339 594.409 169.266C612.411 178.193 628.075 191.163 640.159 207.149C618.073 167.259 575.423 140.221 526.353 140.221C454.674 140.221 396.569 197.97 396.569 269.209C396.527 297.195 405.685 324.429 422.649 346.766C412.129 327.754 406.627 306.403 406.658 284.706Z" fill="black"/>
</g>
<g id="Group_3" opacity="0.1">
<path id="Vector_37" opacity="0.1" d="M592.442 308.881C592.442 308.881 591.474 310.809 590.149 313.124C588.124 312.049 586.167 310.853 584.288 309.542L583.884 309.259L583.669 309.104L585.962 306.588L592.442 308.881Z" fill="black"/>
</g>
<g id="Group_4" opacity="0.1">
<path id="Vector_38" opacity="0.1" d="M595.184 176.306C593.95 177.905 592.3 179.138 590.412 179.873C588.524 180.607 586.47 180.814 584.471 180.472C584.357 178.138 583.871 175.809 582.596 174.387C579.243 170.641 593.488 171.265 593.488 171.265C593.925 172.986 594.492 174.671 595.184 176.306Z" fill="black"/>
</g>
<g id="Group_5" opacity="0.1">
<path id="Vector_39" opacity="0.1" d="M617.844 195.964C616.303 196.529 610.336 198.922 609.676 202.345C609.268 200.82 608.961 199.27 608.759 197.705L616.096 193.749C616.792 194.392 617.382 195.139 617.844 195.964Z" fill="black"/>
</g>
<g id="Group_6" opacity="0.1">
<path id="Vector_40" opacity="0.1" d="M572.332 196.251C571.76 197.88 571.101 199.477 570.36 201.037C570.076 198.977 568.906 193.708 564.279 192.008C565.196 190.764 565.838 190.012 565.838 190.012L572.332 196.251Z" fill="black"/>
</g>
<g id="Group_7" opacity="0.1">
<path id="Vector_41" opacity="0.1" d="M578.354 166.707C580.037 166.707 581.357 164.934 583.04 165.025C583.912 165.071 584.659 165.622 585.379 166.119C588.1 167.992 591.127 169.38 594.327 170.221C595.569 170.55 596.886 170.796 598.133 170.495C599.38 170.194 600.55 169.219 600.692 167.947C600.727 167.387 600.652 166.825 600.472 166.292C599.06 161.403 595.865 157.212 591.511 154.538C589.768 153.476 587.64 152.664 585.709 153.33C583.967 153.927 582.843 155.55 581.582 156.885C580.632 157.885 579.552 158.755 578.372 159.474C577.455 160.025 576.079 160.385 575.552 161.397C574.556 163.284 576.12 166.689 578.354 166.707Z" fill="black"/>
</g>
<path id="Vector_42" opacity="0.05" d="M621.875 207.596C621.875 207.596 620.201 211.552 621.036 212.801L621.875 207.596Z" fill="black"/>
<path id="Vector_43" opacity="0.05" d="M555.052 206.347C555.052 206.347 555.891 210.303 555.052 211.552V206.347Z" fill="black"/>
</g>
</g>
</g>
<defs>
<clipPath id="clip0">
<rect width="728" height="754.885" fill="white"/>
</clipPath>
</defs>
</svg>
